<mxfile host="Electron" modified="2023-09-10T03:26:05.494Z" agent="Mozilla/5.0 (Windows NT 10.0; Win64; x64) AppleWebKit/537.36 (KHTML, like Gecko) draw.io/21.6.8 Chrome/114.0.5735.289 Electron/25.5.0 Safari/537.36" etag="62kj6W5VNP8vQWBj8DeN" version="21.6.8" type="device">
  <diagram id="C5RBs43oDa-KdzZeNtuy" name="Page-1">
    <mxGraphModel dx="1728" dy="1003" grid="1" gridSize="10" guides="1" tooltips="1" connect="1" arrows="1" fold="1" page="1" pageScale="1" pageWidth="827" pageHeight="1169" math="0" shadow="0">
      <root>
        <mxCell id="WIyWlLk6GJQsqaUBKTNV-0" />
        <mxCell id="WIyWlLk6GJQsqaUBKTNV-1" parent="WIyWlLk6GJQsqaUBKTNV-0" />
        <mxCell id="5Q-dNyjFZKqN_ArEZS29-3" value="" style="edgeStyle=orthogonalEdgeStyle;rounded=0;orthogonalLoop=1;jettySize=auto;html=1;strokeWidth=2;" edge="1" parent="WIyWlLk6GJQsqaUBKTNV-1" source="5Q-dNyjFZKqN_ArEZS29-0" target="5Q-dNyjFZKqN_ArEZS29-2">
          <mxGeometry relative="1" as="geometry" />
        </mxCell>
        <mxCell id="5Q-dNyjFZKqN_ArEZS29-0" value="&lt;b&gt;START&lt;/b&gt;" style="rounded=1;whiteSpace=wrap;html=1;fillColor=#008a00;fontColor=#ffffff;strokeColor=#FFFFFF;" vertex="1" parent="WIyWlLk6GJQsqaUBKTNV-1">
          <mxGeometry x="340" y="110" width="120" height="60" as="geometry" />
        </mxCell>
        <mxCell id="5Q-dNyjFZKqN_ArEZS29-1" value="&lt;h1&gt;User Profile Management&lt;br&gt;&lt;/h1&gt;" style="text;strokeColor=none;align=center;fillColor=none;html=1;verticalAlign=middle;whiteSpace=wrap;rounded=0;" vertex="1" parent="WIyWlLk6GJQsqaUBKTNV-1">
          <mxGeometry x="174" y="30" width="480" height="30" as="geometry" />
        </mxCell>
        <mxCell id="5Q-dNyjFZKqN_ArEZS29-5" value="" style="edgeStyle=orthogonalEdgeStyle;rounded=0;orthogonalLoop=1;jettySize=auto;html=1;strokeWidth=2;" edge="1" parent="WIyWlLk6GJQsqaUBKTNV-1" source="5Q-dNyjFZKqN_ArEZS29-2" target="5Q-dNyjFZKqN_ArEZS29-4">
          <mxGeometry relative="1" as="geometry" />
        </mxCell>
        <mxCell id="5Q-dNyjFZKqN_ArEZS29-2" value="&lt;b&gt;The user clicks on &quot;My Profile&quot; to access their profile&lt;/b&gt;" style="rounded=1;whiteSpace=wrap;html=1;fillColor=#008a00;fontColor=#ffffff;strokeColor=#FFFFFF;" vertex="1" parent="WIyWlLk6GJQsqaUBKTNV-1">
          <mxGeometry x="340" y="250" width="120" height="60" as="geometry" />
        </mxCell>
        <mxCell id="5Q-dNyjFZKqN_ArEZS29-7" value="" style="edgeStyle=orthogonalEdgeStyle;rounded=0;orthogonalLoop=1;jettySize=auto;html=1;strokeWidth=2;" edge="1" parent="WIyWlLk6GJQsqaUBKTNV-1" source="5Q-dNyjFZKqN_ArEZS29-4" target="5Q-dNyjFZKqN_ArEZS29-6">
          <mxGeometry relative="1" as="geometry" />
        </mxCell>
        <mxCell id="5Q-dNyjFZKqN_ArEZS29-4" value="&lt;b&gt;The app displays the user&#39;s profile&lt;/b&gt;" style="rounded=1;whiteSpace=wrap;html=1;fillColor=#008a00;fontColor=#ffffff;strokeColor=#FFFFFF;" vertex="1" parent="WIyWlLk6GJQsqaUBKTNV-1">
          <mxGeometry x="340" y="380" width="120" height="60" as="geometry" />
        </mxCell>
        <mxCell id="5Q-dNyjFZKqN_ArEZS29-12" value="" style="edgeStyle=orthogonalEdgeStyle;rounded=0;orthogonalLoop=1;jettySize=auto;html=1;strokeWidth=2;" edge="1" parent="WIyWlLk6GJQsqaUBKTNV-1" source="5Q-dNyjFZKqN_ArEZS29-6" target="5Q-dNyjFZKqN_ArEZS29-11">
          <mxGeometry relative="1" as="geometry" />
        </mxCell>
        <mxCell id="5Q-dNyjFZKqN_ArEZS29-6" value="&lt;b&gt;The user clicks &quot;Edit Profile&quot; to make changes.&lt;/b&gt;" style="whiteSpace=wrap;html=1;fillColor=#008a00;strokeColor=#FFFFFF;fontColor=#ffffff;rounded=1;" vertex="1" parent="WIyWlLk6GJQsqaUBKTNV-1">
          <mxGeometry x="340" y="510" width="120" height="60" as="geometry" />
        </mxCell>
        <mxCell id="5Q-dNyjFZKqN_ArEZS29-14" value="" style="edgeStyle=orthogonalEdgeStyle;rounded=0;orthogonalLoop=1;jettySize=auto;html=1;strokeWidth=2;" edge="1" parent="WIyWlLk6GJQsqaUBKTNV-1" source="5Q-dNyjFZKqN_ArEZS29-11" target="5Q-dNyjFZKqN_ArEZS29-13">
          <mxGeometry relative="1" as="geometry" />
        </mxCell>
        <mxCell id="5Q-dNyjFZKqN_ArEZS29-11" value="&lt;b&gt;The profile editing form is displayed&lt;/b&gt;" style="whiteSpace=wrap;html=1;fillColor=#008a00;strokeColor=#FFFFFF;fontColor=#ffffff;rounded=1;" vertex="1" parent="WIyWlLk6GJQsqaUBKTNV-1">
          <mxGeometry x="340" y="640" width="120" height="60" as="geometry" />
        </mxCell>
        <mxCell id="5Q-dNyjFZKqN_ArEZS29-16" value="" style="edgeStyle=orthogonalEdgeStyle;rounded=0;orthogonalLoop=1;jettySize=auto;html=1;strokeWidth=2;" edge="1" parent="WIyWlLk6GJQsqaUBKTNV-1" source="5Q-dNyjFZKqN_ArEZS29-13" target="5Q-dNyjFZKqN_ArEZS29-15">
          <mxGeometry relative="1" as="geometry" />
        </mxCell>
        <mxCell id="5Q-dNyjFZKqN_ArEZS29-13" value="&lt;b&gt;The user submits changes&lt;/b&gt;" style="whiteSpace=wrap;html=1;fillColor=#008a00;strokeColor=#FFFFFF;fontColor=#ffffff;rounded=1;" vertex="1" parent="WIyWlLk6GJQsqaUBKTNV-1">
          <mxGeometry x="340" y="770" width="120" height="60" as="geometry" />
        </mxCell>
        <mxCell id="5Q-dNyjFZKqN_ArEZS29-18" value="" style="edgeStyle=orthogonalEdgeStyle;rounded=0;orthogonalLoop=1;jettySize=auto;html=1;strokeWidth=2;" edge="1" parent="WIyWlLk6GJQsqaUBKTNV-1" source="5Q-dNyjFZKqN_ArEZS29-15" target="5Q-dNyjFZKqN_ArEZS29-17">
          <mxGeometry relative="1" as="geometry" />
        </mxCell>
        <mxCell id="5Q-dNyjFZKqN_ArEZS29-15" value="&lt;b&gt;The user&#39;s profile is updated with the submitted changes&lt;/b&gt;" style="whiteSpace=wrap;html=1;fillColor=#008a00;strokeColor=#FFFFFF;fontColor=#ffffff;rounded=1;" vertex="1" parent="WIyWlLk6GJQsqaUBKTNV-1">
          <mxGeometry x="340" y="910" width="120" height="60" as="geometry" />
        </mxCell>
        <mxCell id="5Q-dNyjFZKqN_ArEZS29-17" value="&lt;b&gt;END&lt;/b&gt;" style="whiteSpace=wrap;html=1;fillColor=#008a00;strokeColor=#FFFFFF;fontColor=#ffffff;rounded=1;" vertex="1" parent="WIyWlLk6GJQsqaUBKTNV-1">
          <mxGeometry x="340" y="1050" width="120" height="60" as="geometry" />
        </mxCell>
      </root>
    </mxGraphModel>
  </diagram>
</mxfile>
